<svg width="32" height="32" viewBox="0 0 32 32" fill="none" xmlns="http://www.w3.org/2000/svg">
<circle cx="16" cy="16" r="16" fill="#A3B176"/>
<path d="M6.25118 6L25.6923 6.01049C25.7452 7.95817 25.903 9.8702 26 11.8153L23.7042 11.9851C22.5191 8.44445 22.2964 8.19412 18.6175 8.21701C18.5301 11.732 18.6137 15.5825 18.6094 19.1206L18.5904 22.629C18.5834 23.6142 18.3817 24.7914 19.0612 25.5314C19.6955 25.9276 20.5026 26.1019 21.2223 26.2735L21.2255 27.9943L10.7045 28C10.6919 27.3713 10.7044 26.8383 10.7312 26.2097C11.5221 26.1161 13.2311 25.8319 13.2901 24.7964C13.3926 22.999 13.3455 21.1526 13.3451 19.3488L13.3388 8.21673C9.81988 8.18476 9.36625 8.46983 8.292 11.9324C7.52764 11.9116 6.76357 11.8787 6.00019 11.8336C5.99306 10.0655 6.18724 7.83378 6.25118 6Z" fill="white"/>
</svg>
