<svg xmlns="http://www.w3.org/2000/svg" viewBox="1505 529 770 770" role="img" aria-label="TinTin Golf"><title>TinTin Golf</title>
<circle cx="1890" cy="914" r="385" fill="#A1AC6B"/>
<path d="M1946.03 1004.5C1952.42 1004.64 1959.11 1004.56 1965.57 1004.58L1966.2 1004.58L1966.64 1005.03C1972.78 1011.3 1980.38 1021.54 1986.1 1028.3H1986.11C1994.18 1037.84 2002.12 1047.8 2010.08 1057.68C2017.8 1067.27 2025.54 1076.8 2033.46 1085.87C2054.07 1075.96 2084.24 1073.13 2105.85 1081.21L2106.88 1081.61C2108.81 1082.37 2112.39 1083.65 2115.64 1085.28C2117.27 1086.1 2118.88 1087.04 2120.21 1088.09C2121.51 1089.13 2122.68 1090.39 2123.21 1091.88C2123.74 1093.35 2123.59 1095.31 2123.23 1097.23C2122.87 1099.22 2122.21 1101.46 2121.46 1103.64C2119.96 1108.02 2118.03 1112.35 2117.05 1114.36L2117.04 1114.37C2114.94 1118.58 2112.84 1122.5 2108.46 1125.45L2108.46 1125.45C2105.24 1127.61 2100.17 1129.11 2094.38 1130.15C2088.53 1131.21 2081.76 1131.83 2074.97 1132.12C2061.43 1132.71 2047.65 1132 2040.96 1130.74V1130.74C2039.22 1130.42 2036.77 1129.96 2034.42 1129.26C2032.12 1128.58 2029.67 1127.61 2028.07 1126.13L2028.07 1126.13C2022.06 1120.56 2017.62 1112.93 2013.23 1106.39L2012.35 1105.1C2003.77 1092.67 1995.27 1080.18 1986.86 1067.64L1984.26 1063.8C1971.26 1044.63 1957.88 1025.98 1944.76 1006.85L1943.11 1004.44L1946.03 1004.5Z" fill="#092A49" stroke="#092A49" stroke-width="3"/>
<path d="M1837.33 1006.86C1818.55 1033.62 1800 1060.55 1781.68 1087.64L1781.68 1087.65L1764.55 1112.68L1764.55 1112.69C1763.36 1114.4 1761.66 1116.98 1760.04 1119.28C1758.48 1121.48 1756.82 1123.68 1755.28 1125.21L1754.97 1125.5C1753.71 1126.7 1751.83 1127.68 1749.79 1128.48C1747.71 1129.29 1745.32 1129.97 1742.92 1130.5C1738.23 1131.54 1733.3 1132.09 1730.28 1131.99C1727.32 1132.55 1723.04 1132.63 1718.87 1132.52C1714.6 1132.41 1710.29 1132.11 1707.35 1131.9C1702.79 1131.97 1695.44 1131.49 1688.4 1130.16C1684.85 1129.49 1681.34 1128.59 1678.29 1127.42C1675.26 1126.26 1672.55 1124.78 1670.72 1122.88C1667.93 1119.98 1665.68 1115.89 1663.88 1111.72C1662.06 1107.53 1660.64 1103.15 1659.54 1099.6L1659.54 1099.59C1659.01 1097.84 1658.41 1095.82 1658.51 1093.91C1658.62 1091.82 1659.55 1089.93 1661.8 1088.47C1687.82 1071.55 1721.77 1074.09 1749.03 1085.73C1755.14 1079.21 1760.98 1071.26 1766.75 1064.17L1766.75 1064.16C1777.49 1051.18 1788.12 1038.14 1798.67 1025.02L1798.68 1025.01C1803.2 1019.45 1810.54 1009.93 1815.43 1005.03L1815.87 1004.59L1816.49 1004.59L1836.09 1004.5L1839 1004.49L1837.33 1006.86Z" fill="#092A49" stroke="#092A49" stroke-width="3"/>
<path d="M1713.71 667.51C1714.99 667.656 1716.29 667.798 1717.48 668.25C1718.75 668.732 1719.83 669.537 1720.83 670.878C1726.07 677.927 1731.2 685.076 1736.37 692.15H1736.37L1766.44 733.043L1793.59 769.879L1795.76 772.777C1800.85 779.549 1806.09 786.393 1810.84 793.446C1812.11 795.334 1812.58 796.996 1812.55 798.733C1812.54 800.132 1812.19 801.583 1811.86 803.052C1825.07 821.792 1840.72 841.612 1854.54 860.166L1856.73 863.097L1853.11 862.545C1851.03 862.227 1846.4 861.934 1841.78 861.531C1839.51 861.333 1837.27 861.109 1835.43 860.844C1834.51 860.711 1833.67 860.566 1832.97 860.402C1832.3 860.248 1831.62 860.049 1831.11 859.763L1830.85 859.614L1830.66 859.376L1809.26 831.861L1809.26 831.854C1804.91 826.203 1799.81 819.081 1795.22 813.937L1789.46 813.86L1789.05 813.854L1788.69 813.636C1787.01 812.596 1784.69 810.351 1782.17 807.641C1779.61 804.884 1776.71 801.502 1773.85 798.053C1768.15 791.179 1762.49 783.893 1759.96 780.772V780.771L1733.96 749.166L1733.96 749.164C1719.91 732.04 1705.44 715.009 1691.46 697.791L1691.43 697.755L1691.4 697.718C1690.98 697.131 1689.72 695.501 1688.73 694.076C1688.21 693.327 1687.7 692.539 1687.31 691.815C1686.95 691.163 1686.56 690.324 1686.52 689.549L1686.5 689.178C1686.42 685.361 1688.13 681.964 1690.44 679.179C1692.82 676.301 1695.95 673.956 1698.79 672.292C1703.49 669.54 1708.07 668.136 1713.36 667.511L1713.54 667.49L1713.71 667.51Z" fill="#092A49" stroke="#092A49" stroke-width="3"/>
<path d="M2055.4 667.504C2060.88 667.902 2067.65 670.129 2073.14 673.71C2078.59 677.268 2083.11 682.4 2083.37 688.73L2083.38 688.913C2083.36 689.337 2083.26 689.749 2083.14 690.104C2083 690.53 2082.8 690.981 2082.56 691.441C2082.09 692.362 2081.42 693.428 2080.64 694.57C2079.07 696.86 2076.95 699.581 2074.76 702.271C2070.43 707.586 2065.55 713.097 2064.18 714.739L2033.19 752.109L2033.19 752.11L2002.42 789.337C1997.08 795.842 1991.8 802.656 1986.22 809.056C1984.44 811.091 1982.68 813.596 1979.01 813.813L1978.99 813.815H1978.96C1970.44 814.007 1960.2 813.659 1952.12 814.33L1948.63 814.62L1950.83 811.893C1953.49 808.606 1956.05 805.668 1957.93 802.21C1957.56 801.167 1957.18 800.064 1957.06 798.965C1956.9 797.518 1957.17 796.09 1958.13 794.514C1961.54 788.917 1965.6 783.724 1969.48 778.592L1971.14 776.396L1992.23 747.894L2030.09 696.317L2030.09 696.316C2036.11 688.141 2042.23 679.742 2048.36 671.617C2050.18 669.2 2052.36 668.274 2054.88 667.558L2055.13 667.484L2055.4 667.504Z" fill="#092A49" stroke="#092A49" stroke-width="3"/>
<path d="M1891.42 832.503C1905.8 833.301 1925.33 832.736 1940 832.728L2030.12 832.808L2032.07 874.079L2015.48 874.765C2008.22 850.266 2005 848.183 1979.5 848.372C1978.92 874.464 1979.4 902.255 1979.42 928.49L1979.35 952.19C1979.33 956.505 1979.19 961.185 1979.63 965.465C1979.86 967.7 1981.53 969.205 1983.05 970.86C1987.82 973.57 1992.95 974.48 1998.26 975.745C1998.4 979.725 1998.22 983.935 1998.12 987.935L1922.99 987.9L1922.96 975.525C1929.46 975.07 1940.83 972.62 1941.23 964.565C1941.85 952.3 1941.58 939.86 1941.57 927.555L1941.6 848.365C1916.79 848.23 1912.94 850.048 1906 874.579C1900.42 874.502 1894.85 874.354 1889.29 874.136C1889.85 860.981 1890.36 845.54 1891.42 832.503Z" fill="white"/>
<path d="M1547.8 832.75L1686.91 832.824C1687.29 846.564 1688.42 860.053 1689.11 873.775L1672.69 874.973C1664.21 849.995 1662.61 848.229 1636.29 848.39C1635.66 873.187 1636.26 900.35 1636.23 925.31L1636.09 950.06C1636.04 957.01 1634.6 965.315 1639.46 970.535C1644 973.33 1649.78 974.56 1654.93 975.77L1654.95 987.91L1579.66 987.95C1579.57 983.515 1579.66 979.755 1579.85 975.32C1585.51 974.66 1597.74 972.655 1598.17 965.35C1598.9 952.67 1598.56 939.646 1598.56 926.921L1598.51 848.388C1573.33 848.163 1570.09 850.174 1562.4 874.601C1556.93 874.454 1551.46 874.222 1546 873.904C1545.95 861.43 1547.34 845.687 1547.8 832.75Z" fill="white"/>
<path d="M2185.76 878.112C2219.1 878.755 2221.8 901.205 2221.68 928.625L2221.55 953.95C2221.48 967.805 2219.82 972.83 2234.08 977.18L2234.12 987.925L2177.18 987.915L2177 977.26C2184.57 974.44 2187.91 972.13 2187.65 963.16C2187.17 946.665 2188.62 928.39 2186.91 912.165C2185.31 897.045 2167.5 895.26 2158.38 904.925C2152.1 911.57 2152.61 919.235 2152.69 927.535C2152.63 939.32 2151.55 959.075 2153.92 970.235C2154.73 974.04 2160.31 975.715 2163.93 977.45L2163.94 987.95L2106.73 987.96L2106.74 977.185C2108.45 976.635 2110.17 976.08 2111.84 975.42C2114.18 974.49 2116.25 973.345 2117.18 970.88C2119.82 963.94 2119.42 918.845 2118.73 909.42C2118.56 907.02 2118.24 903.41 2117.05 901.335C2114.93 897.625 2109.95 896.572 2106.18 895.396C2105.93 892.364 2105.76 889.237 2105.57 886.193C2113.72 884.612 2121.86 882.941 2129.97 881.179C2134.84 880.162 2145.26 876.939 2149.06 880.335C2150.74 884.38 2150.11 891.143 2150 895.727C2161.06 884.343 2170.07 879.229 2185.76 878.112Z" fill="white"/>
<path d="M1807.2 895.587C1820.19 881.861 1837.31 874.129 1856.49 880.005C1878.44 886.732 1878.6 908.62 1878.56 927.96L1878.43 955.585C1878.39 969.435 1877.11 972.94 1891.18 977.055L1891.1 987.955L1834.55 987.97C1834.5 984.435 1834.56 980.775 1834.58 977.225C1837.2 976.115 1840.59 975.02 1842.29 972.585C1846.31 966.83 1845.17 919.465 1843.68 911.105C1843.54 910.635 1843.4 910.175 1843.25 909.715C1841.94 905.74 1840.12 902.275 1836.15 900.405C1832.03 898.47 1826.73 898.565 1822.54 900.19C1817.71 902.06 1813.19 906.345 1811.21 911.16C1808.91 916.74 1808.83 965.83 1811.33 971.27C1813.02 974.945 1817.74 975.96 1821.21 977.19L1821.29 987.94L1763.74 987.99L1763.64 977.245C1775.42 974.34 1775.86 970.88 1775.92 959.44C1775.88 942.49 1776.28 925.51 1775.8 908.57C1775.56 899.84 1772.06 897.495 1763.69 895.635C1763.43 892.596 1763.2 889.554 1762.99 886.511C1772.67 883.941 1790.94 880.296 1800.86 878.554C1809.52 877.338 1807.16 889.657 1807.2 895.587Z" fill="white"/>
<path d="M2079.23 878.022C2080.86 878.313 2083.06 879.194 2083.26 881.025C2083.87 886.473 2083.49 892.468 2083.46 897.945L2083.45 939.685C2083.44 947.765 2083.27 955.845 2083.62 963.92C2084 972.795 2087.49 975.04 2095.65 977.15L2095.76 987.9L2041.46 987.99C2039.27 987.925 2039.47 988.29 2038.09 987.205C2037.07 984.25 2037.63 980.655 2037.73 977.3C2037.98 977.23 2038.24 977.165 2038.49 977.09C2041.87 976.13 2046.2 974.63 2047.88 971.29C2050.67 965.74 2050.14 915.655 2049.45 906.73C2049.28 904.605 2048.76 902.655 2048.13 900.625C2044.74 897.88 2041.79 896.819 2037.8 895.214C2037.3 892.171 2037.09 889.653 2036.84 886.588C2039.39 885.833 2041.98 885.353 2044.59 884.856C2056.15 882.655 2067.75 880.636 2079.23 878.022Z" fill="white"/>
<path d="M1734.09 878.533C1735.66 878.201 1737.23 878.046 1738.73 878.717C1739.72 879.158 1740.28 879.966 1740.49 881.028C1741.46 885.907 1740.62 892.209 1740.61 897.216C1740.57 909.606 1739.17 962.636 1742.04 970.261C1743.66 974.546 1748.71 975.866 1752.56 977.516L1752.65 987.921L1701.55 987.951L1694.57 987.916L1694.54 977.256C1705.54 973.931 1706.74 970.991 1706.86 959.451C1707.04 942.861 1707.17 926.186 1706.79 909.601C1706.58 900.081 1703.15 897.866 1694.5 895.627L1694.18 886.742C1706.84 883.661 1721.16 881.129 1734.09 878.533Z" fill="white"/>
<path d="M1719.1 831.004C1724.9 830.746 1728.36 830.806 1733.57 834.015C1743.42 840.072 1744.63 854.549 1735.8 862.02C1732.62 864.716 1729.62 865.604 1725.56 866.267C1720.24 866.537 1715.96 866.541 1711.14 863.66C1707.01 861.236 1704.11 857.158 1703.18 852.457C1700.86 841.095 1708.41 833.147 1719.1 831.004Z" fill="white"/>
<path d="M2061.51 830.992C2065.67 830.768 2071.69 830.749 2075.11 832.965C2091.2 843.394 2086.48 860.809 2069.75 866.048C2064.82 866.809 2059.74 866.676 2055.24 864.293C2051.06 862.069 2047.96 858.237 2046.67 853.68C2043.43 842.473 2050.83 833.578 2061.51 830.992Z" fill="white"/>
</svg>
